<?xml version="1.0"?>
<svg version="1.1" id="圖層_1" xmlns="http://www.w3.org/2000/svg" x="0" y="0" viewBox="0 0 100 100" xml:space="preserve"><path fill="#e0e0e0" d="M76.5 38.6h1.7v7.1h-1.7z"/><path fill="#e0e0e0" d="M69.3 38.6H71v7.1h-1.7z"/><path fill="#e0e0e0" d="M62.1 38.6h1.7v7.1h-1.7z"/><path fill="#e0e0e0" d="M55 38.6h1.7v7.1H55z"/><path fill="#e0e0e0" d="M47.8 38.6h1.7v7.1h-1.7z"/><path fill="#e0e0e0" d="M40.6 38.6h1.7v7.1h-1.7z"/><path d="M43.9 48.2c.5-1 .1-2.2-.9-2.8l-28.6-15c-1.4-.7-3 .2-3 1.8l-.1 3c0 .8.4 1.5 1.1 1.9l20.5 10.8c.2.1.4.2.7.2l8.3 1.2c.7.2 1.6-.2 2-1.1z" fill="#a0c8d7"/><path fill="#a0c8d7" d="M13.7 45.2h72.7v6.4H13.7z"/><path d="M89.3 30.1c-1.7.1-2.9 1.6-2.9 3.2v18.3H13.7V27.8c0-1.7-1.2-3.2-2.9-3.2-1.8-.1-3.2 1.3-3.2 3.1v26.8c0 1.8 1.4 3.2 3.2 3.2h77.8c2.2 0 3.9-1.8 3.9-3.9V33.2c0-1.8-1.5-3.2-3.2-3.1z" fill="#e0e0e0"/><path d="M82.8 64.3h-8.3v-8.2h-4.1v8.2H29.8v-8.2h-4.1v8.2H17c-1.3 0-2.4 1.1-2.4 2.4 0 1.3 1.1 2.4 2.4 2.4h65.7c1.3 0 2.4-1.1 2.4-2.4 0-1.3-1-2.4-2.3-2.4z" fill="#e0e0e0"/><circle cx="27.8" cy="70.3" r="5.1" fill="#333"/><circle cx="27.8" cy="70.3" r="2.6" fill="#e0e0e0"/><circle cx="72.4" cy="70.3" r="5.1" fill="#333"/><circle cx="72.4" cy="70.3" r="2.6" fill="#e0e0e0"/><path d="M80.9 39.2H37.6c-.6 0-1.1-.5-1.1-1.1 0-.6.5-1.1 1.1-1.1h43.3c.6 0 1.1.5 1.1 1.1.1.6-.4 1.1-1.1 1.1z" fill="#abbd81"/><metadata xmlns:d="https://loading.io/stock/"><d:name>hospital bed</d:name><d:tags>hospital bed,patient,hospital,sick,ill,icu</d:tags><d:license>by</d:license><d:slug>a9r906</d:slug></metadata></svg>